<?xml version="1.0" encoding="utf-8"?>
<svg id="master-artboard" viewBox="0 0 120 50" version="1.1" xmlns="http://www.w3.org/2000/svg" x="0px" y="0px" width="120px" height="50px" enable-background="new 0 0 1400 980"><defs><style id="ee-google-fonts">@import url(https://fonts.googleapis.com/css?family=Boogaloo:400);</style><path id="text-path-0" d="M 25.419109344482422 30.49821662902832 A 100 31 0 0 1 87.99723815917969 30.49821662902832 A 100 31 0 0 1 25.419109344482422 30.49821662902832 Z" style="fill: none; stroke: red; stroke-width: 2;"/></defs><rect id="ee-background" x="0" y="0" width="120" height="50" style="fill: white; fill-opacity: 0; pointer-events: none;"/><path d="M 3.0542166233062744 5.07119083404541 L 114.11493682861328 5.881853103637695 C 114.11493682861328 5.881853103637695 116.54692077636719 44.253196716308594 116.54692077636719 46.41496276855469 C 116.54692077636719 48.57672882080078 15.272996831301395 37.1980432200259 7.107527732849121 40.740333557128906" style="fill: rgb(64, 6, 7); fill-opacity: 0.96; stroke: rgb(0, 0, 0); stroke-opacity: 1; stroke-width: 2; paint-order: fill;"/><path d="M 2.2435543537139893 9.394721984863281" style="fill: rgb(51, 51, 51); fill-opacity: 1; stroke: rgb(0, 0, 0); stroke-opacity: 1; stroke-width: 0; paint-order: fill;"/><path style="fill: rgb(64, 6, 7); fill-opacity: 0.96; stroke: rgb(0, 0, 0); stroke-opacity: 1; stroke-width: 2; paint-order: fill;"/><path d="M 11.16083812713623 39.389225006103516" style="fill: rgb(64, 6, 7); fill-opacity: 0.96; stroke: rgb(0, 0, 0); stroke-opacity: 1; stroke-width: 2; paint-order: fill;"/><path d="M 10.079955101013184 30.74216079711914" style="fill: rgb(64, 6, 7); fill-opacity: 0.96; stroke: rgb(0, 0, 0); stroke-opacity: 1; stroke-width: 2; paint-order: fill;"/><path d="M 5.215982437133789 22.905757904052734" style="fill: rgb(64, 6, 7); fill-opacity: 0.96; stroke: rgb(0, 0, 0); stroke-opacity: 1; stroke-width: 2; paint-order: fill;"/><path style="fill: rgb(64, 6, 7); fill-opacity: 0.96; stroke: rgb(0, 0, 0); stroke-opacity: 1; stroke-width: 2; paint-order: fill;"/><path d="M 42.049224853515625 29.34127426147461 C 41.909767150878906 27.138200759887695 41.80437088012695 25.04730796813965 41.73303985595703 23.068592071533203 C 41.661949157714844 21.096540451049805 41.682743072509766 18.527456283569336 41.79541778564453 15.361342430114746 C 44.173988342285156 14.90869140625 46.502532958984375 14.64129638671875 48.78105545043945 14.55915641784668 L 48.874000549316406 17.137481689453125 C 47.29502868652344 17.19440269470215 45.827781677246094 17.29732894897461 44.472267150878906 17.446258544921875 C 44.47541046142578 19.013830184936523 44.485450744628906 20.21758270263672 44.50238800048828 21.057518005371094 C 45.556175231933594 20.86609649658203 46.81211471557617 20.730762481689453 48.270206451416016 20.65151596069336 L 48.75316619873047 22.94560432434082 C 47.81425857543945 22.992794036865234 46.40901565551758 23.150188446044922 44.53744125366211 23.417787551879883 C 44.597965240478516 25.096696853637695 44.65155029296875 26.305551528930664 44.69819641113281 27.04435157775879 C 45.90713882446289 26.90070343017578 47.35196304321289 26.63848304748535 49.03266906738281 26.257686614990234 L 49.47565460205078 28.5532169342041 C 48.309452056884766 29.14228057861328 46.91354751586914 29.46611213684082 45.28793716430664 29.524715423583984 L 42.049224853515625 29.34127426147461 ZM 50.079837799072266 28.239952087402344 C 50.96456527709961 26.040414810180664 51.929893493652344 23.926984786987305 52.97582244873047 21.8996639251709 C 51.851890563964844 19.420751571655273 51.04580307006836 17.10963249206543 50.55755615234375 14.966310501098633 L 53.47922134399414 15.196000099182129 C 53.62644958496094 16.235002517700195 53.987056732177734 17.759197235107422 54.56104278564453 19.76858901977539 C 55.47466278076172 17.888856887817383 56.455177307128906 16.041994094848633 57.50259017944336 14.228001594543457 L 59.55463790893555 15.953774452209473 C 58.40009689331055 17.701845169067383 57.211002349853516 19.753496170043945 55.98735046386719 22.108728408813477 C 56.7942008972168 24.04983139038086 57.83039855957031 26.37601661682129 59.095947265625 29.087282180786133 L 56.26393127441406 28.80696678161621 C 55.70861053466797 27.564130783081055 55.10821533203125 26.071603775024414 54.46275329589844 24.329381942749023 C 53.37266159057617 26.71702003479004 52.65151596069336 28.472076416015625 52.299312591552734 29.594552993774414 L 50.079837799072266 28.239952087402344 ZM 64.20838928222656 14.490081787109375 C 64.04463195800781 16.700979232788086 63.93955993652344 19.18956756591797 63.8931770324707 21.955846786499023 C 63.846683502197266 24.728788375854492 63.897586822509766 27.259998321533203 64.04589080810547 29.54947280883789 L 61.21065139770508 29.241897583007812 C 61.07851028442383 26.385948181152344 61.031776428222656 23.804800033569336 61.07044982910156 21.498458862304688 C 61.1090087890625 19.198781967163086 61.21318435668945 16.763519287109375 61.38297653198242 14.192671775817871 L 64.20838928222656 14.490081787109375 ZM 67.88397979736328 29.174280166625977 C 67.8317642211914 26.69049644470215 67.84066009521484 24.52927017211914 67.91065979003906 22.690601348876953 C 67.98065948486328 20.8519344329834 68.09700775146484 18.934972763061523 68.25969696044922 16.93971824645996 L 65.68785858154297 17.202064514160156 L 65.32101440429688 14.746331214904785 C 66.70248413085938 14.558751106262207 68.06489562988281 14.433825492858887 69.40823364257812 14.371552467346191 L 73.34337615966797 14.311217308044434 L 73.65406799316406 16.66474151611328 C 72.87976837158203 16.675291061401367 72.00811767578125 16.702150344848633 71.03910827636719 16.745315551757812 C 70.88231658935547 18.76081085205078 70.77196502685547 20.60795021057129 70.70805358886719 22.286733627319336 C 70.64413452148438 23.965517044067383 70.5792236328125 26.371456146240234 70.51331329345703 29.50455093383789 L 67.88397979736328 29.174280166625977 Z" transform="matrix(1, 0, 0, 1, 0, 0)" style="fill: rgb(209, 194, 25); white-space: pre; color: rgb(51, 51, 51); fill-opacity: 1;"/></svg>