<?xml version="1.0" encoding="utf-8"?>
<svg id="master-artboard" viewBox="0 0 120 50" version="1.1" xmlns="http://www.w3.org/2000/svg" x="0px" y="0px" width="120px" height="50px" enable-background="new 0 0 1400 980"><defs><style id="ee-google-fonts">@import url(https://fonts.googleapis.com/css?family=Boogaloo:400);</style><path id="text-path-0" d="M 25.419109344482422 30.49821662902832 A 100 31 0 0 1 87.99723815917969 30.49821662902832 A 100 31 0 0 1 25.419109344482422 30.49821662902832 Z" style="fill: none; stroke: red; stroke-width: 2;"/></defs><rect id="ee-background" x="0" y="0" width="120" height="50" style="fill: white; fill-opacity: 0; pointer-events: none;"/><path d="M 3.0542166233062744 5.07119083404541 L 114.11493682861328 5.881853103637695 C 114.11493682861328 5.881853103637695 116.54692077636719 44.253196716308594 116.54692077636719 46.41496276855469 C 116.54692077636719 48.57672882080078 15.272996831301395 37.1980432200259 7.107527732849121 40.740333557128906" style="fill: rgb(64, 6, 7); fill-opacity: 0.96; stroke: rgb(0, 0, 0); stroke-opacity: 1; stroke-width: 2; paint-order: fill;"/><path d="M 2.2435543537139893 9.394721984863281" style="fill: rgb(51, 51, 51); fill-opacity: 1; stroke: rgb(0, 0, 0); stroke-opacity: 1; stroke-width: 0; paint-order: fill;"/><path style="fill: rgb(64, 6, 7); fill-opacity: 0.96; stroke: rgb(0, 0, 0); stroke-opacity: 1; stroke-width: 2; paint-order: fill;"/><path d="M 11.16083812713623 39.389225006103516" style="fill: rgb(64, 6, 7); fill-opacity: 0.96; stroke: rgb(0, 0, 0); stroke-opacity: 1; stroke-width: 2; paint-order: fill;"/><path d="M 10.079955101013184 30.74216079711914" style="fill: rgb(64, 6, 7); fill-opacity: 0.96; stroke: rgb(0, 0, 0); stroke-opacity: 1; stroke-width: 2; paint-order: fill;"/><path d="M 5.215982437133789 22.905757904052734" style="fill: rgb(64, 6, 7); fill-opacity: 0.96; stroke: rgb(0, 0, 0); stroke-opacity: 1; stroke-width: 2; paint-order: fill;"/><path style="fill: rgb(64, 6, 7); fill-opacity: 0.96; stroke: rgb(0, 0, 0); stroke-opacity: 1; stroke-width: 2; paint-order: fill;"/><path d="M 25.231718063354492 30.677352905273438 C 25.123247146606445 27.313919067382812 24.95363998413086 24.320600509643555 24.72289276123047 21.697397232055664 C 24.49214744567871 19.07419204711914 24.330595016479492 17.351722717285156 24.238235473632812 16.52998924255371 C 25.708637237548828 15.671175003051758 27.27396583557129 15.168746948242188 28.934223175048828 15.022705078125 C 30.162811279296875 14.914634704589844 31.22663688659668 15.215909004211426 32.12569808959961 15.926529884338379 C 33.024169921875 16.630508422851562 33.53620529174805 17.696407318115234 33.66180419921875 19.12422752380371 C 33.80609130859375 20.76456069946289 32.779624938964844 22.44764518737793 30.582399368286133 24.17348289489746 C 31.99103355407715 25.655752182006836 33.44328308105469 27.291458129882812 34.939144134521484 29.080596923828125 L 33.058349609375 30.7518310546875 C 32.064903259277344 29.500736236572266 30.300540924072266 27.47420883178711 27.765268325805664 24.672250747680664 C 27.908050537109375 26.828031539916992 28.022254943847656 28.849132537841797 28.107881546020508 30.735551834106445 L 25.231718063354492 30.677352905273438 M 27.70060920715332 23.252456665039062 C 28.686738967895508 22.670475006103516 29.51351547241211 21.988739013671875 30.180938720703125 21.207250595092773 C 30.841720581054688 20.426345825195312 31.146408081054688 19.743688583374023 31.095001220703125 19.159278869628906 C 31.043010711669922 18.568227767944336 30.8303279876709 18.12850570678711 30.456954956054688 17.840112686157227 C 30.09022331237793 17.551136016845703 29.627933502197266 17.431182861328125 29.070087432861328 17.480253219604492 C 28.51224136352539 17.52932357788086 27.908462524414062 17.702896118164062 27.25874900817871 18.000974655151367 C 27.466127395629883 20.358537673950195 27.613414764404297 22.109031677246094 27.70060920715332 23.252456665039062 ZM 35.93266677856445 29.68244743347168 C 35.75012969970703 27.482524871826172 35.60383987426758 25.394094467163086 35.49380874633789 23.41715431213379 C 35.3841438293457 21.446870803833008 35.35466384887695 18.877872467041016 35.40536880493164 15.710158348083496 C 37.774627685546875 15.211053848266602 40.097496032714844 14.898148536682129 42.37397003173828 14.771441459655762 L 42.51734924316406 17.347454071044922 C 40.93979263305664 17.435260772705078 39.4748420715332 17.566875457763672 38.122501373291016 17.742300033569336 C 38.156314849853516 19.30950927734375 38.189903259277344 20.512834548950195 38.22327423095703 21.352277755737305 C 39.27311325073242 21.140274047851562 40.52616500854492 20.980390548706055 41.982425689697266 20.872629165649414 L 42.51018142700195 23.156829833984375 C 41.5723762512207 23.222381591796875 40.17048263549805 23.407241821289062 38.30450439453125 23.711410522460938 C 38.397865295410156 25.388813018798828 38.475093841552734 26.59638786315918 38.53618621826172 27.33413314819336 C 39.742088317871094 27.166858673095703 41.18150329589844 26.87641716003418 42.85443878173828 26.46280860900879 L 43.342254638671875 28.749231338500977 C 42.187801361083984 29.361000061035156 40.798500061035156 29.71208381652832 39.174346923828125 29.80248260498047 L 35.93266677856445 29.68244743347168 ZM 49.501834869384766 19.837255477905273 C 49.67066955566406 19.14598846435547 49.7491340637207 18.570432662963867 49.73722839355469 18.110586166381836 C 49.72532653808594 17.650739669799805 49.5888671875 17.274145126342773 49.32785415649414 16.98080062866211 C 49.066673278808594 16.68079376220703 48.73614501953125 16.535964965820312 48.336280822753906 16.546316146850586 C 47.9364128112793 16.55666732788086 47.608280181884766 16.76189422607422 47.35188293457031 17.161996841430664 C 47.09548568725586 17.56209945678711 46.97384262084961 18.015398025512695 46.98695373535156 18.521894454956055 C 47.01231384277344 19.501567840576172 47.59386444091797 20.326793670654297 48.73160171508789 20.997575759887695 C 49.870033264160156 21.695016860961914 50.64665222167969 22.198421478271484 51.06146240234375 22.507789611816406 C 51.47627639770508 22.81715965270996 51.77043533325195 23.102975845336914 51.943946838378906 23.3652400970459 C 52.38157653808594 24.040807723999023 52.60979461669922 24.741804122924805 52.628597259521484 25.46822738647461 C 52.66120529174805 26.727806091308594 52.26406478881836 27.74509048461914 51.43717575073242 28.52008056640625 C 50.61011505126953 29.288408279418945 49.6667594909668 29.68628692626953 48.60711669921875 29.713716506958008 C 47.347537994384766 29.746322631835938 46.27751159667969 29.243844985961914 45.397029876708984 28.206281661987305 C 44.75722885131836 27.449251174926758 44.16590881347656 26.50423812866211 43.62307357788086 25.371238708496094 L 45.626773834228516 24.329038619995117 C 45.96840286254883 25.160476684570312 46.389976501464844 25.859800338745117 46.89148712158203 26.427013397216797 C 47.38633728027344 26.99439811706543 47.90700149536133 27.27101707458496 48.453487396240234 27.25687026977539 C 48.80670166015625 27.247726440429688 49.12041473388672 27.129568099975586 49.394630432128906 26.902395248413086 C 49.668670654296875 26.668560028076172 49.79982376098633 26.325050354003906 49.78809356689453 25.871868133544922 C 49.77635955810547 25.41868782043457 49.58879852294922 25.00006675720215 49.225406646728516 24.616008758544922 C 48.868675231933594 24.231779098510742 48.391815185546875 23.8439884185791 47.79481887817383 23.452640533447266 C 47.191162109375 23.061464309692383 46.72610855102539 22.743392944335938 46.399662017822266 22.498424530029297 C 46.07304000854492 22.24679183959961 45.70786666870117 21.922800064086914 45.304141998291016 21.52644920349121 C 44.544029235839844 20.75919532775879 44.14810562133789 19.762439727783203 44.11635971069336 18.536184310913086 C 44.08478927612305 17.316593170166016 44.484745025634766 16.27923011779785 45.316226959228516 15.424092292785645 C 46.14771270751953 14.568955421447754 47.14992141723633 14.126206398010254 48.3228645324707 14.095842361450195 C 49.50246810913086 14.065306663513184 50.503868103027344 14.492868423461914 51.32706069946289 15.37852954864502 C 52.1570930480957 16.27068328857422 52.584529876708984 17.196598052978516 52.609375 18.15627670288086 C 52.6340446472168 19.109289169311523 52.47532653808594 19.933673858642578 52.13321304321289 20.629426956176758 L 49.501834869384766 19.837255477905273 ZM 56.18306350708008 28.981281280517578 C 56.037967681884766 26.501190185546875 55.96600341796875 24.341144561767578 55.96717071533203 22.501144409179688 C 55.96833419799805 20.661144256591797 56.01288604736328 18.741172790527344 56.1008186340332 16.741228103637695 L 53.540592193603516 17.099605560302734 L 53.08213806152344 14.65931510925293 C 54.455623626708984 14.420184135437012 55.812400817871094 14.244378089904785 57.15247344970703 14.131893157958984 L 61.082603454589844 13.924382209777832 L 61.48112106323242 16.26463508605957 C 60.707763671875 16.30414581298828 59.83772659301758 16.36359405517578 58.871009826660156 16.442981719970703 C 58.789730072021484 18.462932586669922 58.748558044433594 20.31290626525879 58.747493743896484 21.992904663085938 C 58.746429443359375 23.67290496826172 58.77157211303711 26.079587936401367 58.82291793823242 29.212955474853516 L 56.18306350708008 28.981281280517578 ZM 67.87247467041016 28.919113159179688 L 67.47595977783203 25.986610412597656 L 64.3435287475586 26.02727699279785 L 63.43117904663086 29.952850341796875 L 60.499794006347656 29.609094619750977 L 64.69239807128906 14.502538681030273 L 68.57140350341797 14.943363189697266 L 70.91410064697266 29.256010055541992 L 67.87247467041016 28.919113159179688 M 66.36325073242188 17.30133628845215 L 64.84752655029297 23.790742874145508 L 67.1988525390625 23.777807235717773 L 66.36325073242188 17.30133628845215 ZM 72.2381820678711 29.479164123535156 C 72.63388061523438 26.137327194213867 72.91378021240234 23.152301788330078 73.07788848876953 20.524085998535156 C 73.24198913574219 17.895872116088867 73.3398208618164 16.168611526489258 73.37137603759766 15.342305183410645 C 74.95366668701172 14.713022232055664 76.57653045654297 14.450311660766602 78.23995971679688 14.554176330566406 C 79.47089385986328 14.631035804748535 80.47770690917969 15.088001251220703 81.26039123535156 15.925070762634277 C 82.04350280761719 16.7554874420166 82.39038848876953 17.885969161987305 82.30106353759766 19.316516876220703 C 82.19844818115234 20.95998191833496 80.93184661865234 22.470651626586914 78.50125122070312 23.848526000976562 C 79.67240142822266 25.524768829345703 80.86373138427734 27.359241485595703 82.07523345947266 29.351947784423828 L 79.96568298339844 30.723148345947266 C 79.17048645019531 29.337566375732422 77.72899627685547 27.06999397277832 75.6412124633789 23.92043113708496 C 75.46002960205078 26.07332420349121 75.2707290649414 28.08877944946289 75.07331085205078 29.966793060302734 L 72.2381820678711 29.479164123535156 M 75.78958892822266 22.50693130493164 C 76.85165405273438 22.07895278930664 77.77108001708984 21.528512954711914 78.54785919189453 20.85561180114746 C 79.31797790527344 20.182296752929688 79.72132110595703 19.552875518798828 79.75788116455078 18.967348098754883 C 79.79486083984375 18.37516975402832 79.65032196044922 17.908588409423828 79.32427215576172 17.56760597229004 C 79.00487518310547 17.227039337158203 78.56571960449219 17.039308547973633 78.00680541992188 17.004409790039062 C 77.4478988647461 16.969511032104492 76.824951171875 17.05084800720215 76.13796997070312 17.24842071533203 C 75.990478515625 19.61048698425293 75.87435150146484 21.363323211669922 75.78958892822266 22.50693130493164 ZM 84.38986206054688 30.191448211669922 C 84.4731216430664 27.70850944519043 84.59981536865234 25.550981521606445 84.76993560791016 23.71886444091797 C 84.9400634765625 21.88674545288086 85.16072845458984 19.978975296020508 85.43193817138672 17.995555877685547 L 82.84962463378906 18.117321014404297 L 82.6171875 15.645241737365723 C 84.00682830810547 15.533245086669922 85.3740234375 15.482770919799805 86.71875762939453 15.493816375732422 L 90.6513442993164 15.648077011108398 L 90.8332748413086 18.015037536621094 C 90.05955505371094 17.98336410522461 89.18773651123047 17.962669372558594 88.21781158447266 17.952951431274414 C 87.9513931274414 19.95690155029297 87.74051666259766 21.795278549194336 87.5851821899414 23.468082427978516 C 87.42985534667969 25.140886306762695 87.23388671875 27.539709091186523 86.9972915649414 30.664552688598633 L 84.38986206054688 30.191448211669922 Z" transform="matrix(1, 0, 0, 1, 0, 0)" style="fill: rgb(181, 182, 208); white-space: pre; color: rgb(51, 51, 51); fill-opacity: 1;"/></svg>