<?xml version="1.0" encoding="utf-8"?>
<svg id="master-artboard" viewBox="0 0 120 50" version="1.1" xmlns="http://www.w3.org/2000/svg" x="0px" y="0px" width="120px" height="50px" enable-background="new 0 0 1400 980"><defs><style id="ee-google-fonts">@import url(https://fonts.googleapis.com/css?family=Boogaloo:400);</style><path id="text-path-0" d="M 25.419109344482422 30.49821662902832 A 100 31 0 0 1 87.99723815917969 30.49821662902832 A 100 31 0 0 1 25.419109344482422 30.49821662902832 Z" style="fill: none; stroke: red; stroke-width: 2;"/></defs><rect id="ee-background" x="0" y="0" width="120" height="50" style="fill: white; fill-opacity: 0; pointer-events: none;"/><path d="M 3.0542166233062744 5.07119083404541 L 114.11493682861328 5.881853103637695 C 114.11493682861328 5.881853103637695 116.54692077636719 44.253196716308594 116.54692077636719 46.41496276855469 C 116.54692077636719 48.57672882080078 15.272996831301395 37.1980432200259 7.107527732849121 40.740333557128906" style="fill: rgb(64, 6, 7); fill-opacity: 0.96; stroke: rgb(0, 0, 0); stroke-opacity: 1; stroke-width: 2; paint-order: fill;"/><path d="M 2.2435543537139893 9.394721984863281" style="fill: rgb(51, 51, 51); fill-opacity: 1; stroke: rgb(0, 0, 0); stroke-opacity: 1; stroke-width: 0; paint-order: fill;"/><path style="fill: rgb(64, 6, 7); fill-opacity: 0.96; stroke: rgb(0, 0, 0); stroke-opacity: 1; stroke-width: 2; paint-order: fill;"/><path d="M 11.16083812713623 39.389225006103516" style="fill: rgb(64, 6, 7); fill-opacity: 0.96; stroke: rgb(0, 0, 0); stroke-opacity: 1; stroke-width: 2; paint-order: fill;"/><path d="M 10.079955101013184 30.74216079711914" style="fill: rgb(64, 6, 7); fill-opacity: 0.96; stroke: rgb(0, 0, 0); stroke-opacity: 1; stroke-width: 2; paint-order: fill;"/><path d="M 5.215982437133789 22.905757904052734" style="fill: rgb(64, 6, 7); fill-opacity: 0.96; stroke: rgb(0, 0, 0); stroke-opacity: 1; stroke-width: 2; paint-order: fill;"/><path style="fill: rgb(64, 6, 7); fill-opacity: 0.96; stroke: rgb(0, 0, 0); stroke-opacity: 1; stroke-width: 2; paint-order: fill;"/><path d="M 26.568044662475586 30.543458938598633 C 26.47504997253418 27.179563522338867 26.319215774536133 24.185495376586914 26.100542068481445 21.56125831604004 C 25.881866455078125 18.93701934814453 25.728240966796875 17.213825225830078 25.639663696289062 16.391674041748047 C 27.11400032043457 15.53963565826416 28.681625366210938 15.044414520263672 30.3425350189209 14.906013488769531 C 31.571609497070312 14.803595542907715 32.634037017822266 15.109762191772461 33.529815673828125 15.824511528015137 C 34.425045013427734 16.532615661621094 34.93217086791992 17.600860595703125 35.05119323730469 19.02924346923828 C 35.18793487548828 20.67022132873535 34.15373611450195 22.34856605529785 31.948591232299805 24.06427574157715 C 33.35039138793945 25.553010940551758 34.795101165771484 27.19538116455078 36.282711029052734 28.991384506225586 L 34.39425277709961 30.653945922851562 C 33.40657043457031 29.39829444885254 31.65155029296875 27.363672256469727 29.129196166992188 24.550079345703125 C 29.26205825805664 26.706493377685547 29.366962432861328 28.728097915649414 29.443910598754883 30.614891052246094 L 26.568044662475586 30.543458938598633 M 29.071069717407227 23.130001068115234 C 30.05986785888672 22.552562713623047 30.889772415161133 21.874637603759766 31.56078338623047 21.096227645874023 C 32.22515106201172 20.31837272644043 32.53297424316406 19.63712501525879 32.484256744384766 19.05248260498047 C 32.43498611450195 18.461198806762695 32.22433090209961 18.020503997802734 31.8522891998291 17.730396270751953 C 31.48689079284668 17.439735412597656 31.025157928466797 17.317657470703125 30.467092514038086 17.364160537719727 C 29.909025192260742 17.410663604736328 29.304454803466797 17.581457138061523 28.65337562561035 17.876541137695312 C 28.84990692138672 20.235034942626953 28.989137649536133 21.986186981201172 29.071069717407227 23.130001068115234 ZM 37.31543731689453 29.594650268554688 C 37.14273452758789 27.39393424987793 37.00578308105469 25.30487060546875 36.90458679199219 23.32745933532715 C 36.80373001098633 21.356704711914062 36.785736083984375 18.787599563598633 36.85060119628906 15.620144844055176 C 39.22206497192383 15.131635665893555 41.54630661010742 14.829115867614746 43.823326110839844 14.71258544921875 L 43.9551887512207 17.289213180541992 C 42.377254486083984 17.369966506958008 40.9117317199707 17.495033264160156 39.55862045288086 17.664409637451172 C 39.585426330566406 19.23175621032715 39.61363983154297 20.43522071838379 39.64325714111328 21.274803161621094 C 40.694034576416016 21.067495346069336 41.94778823852539 20.9132137298584 43.40451431274414 20.811962127685547 L 43.92205810546875 23.098499298095703 C 42.98396682739258 23.15985870361328 41.581260681152344 23.338449478149414 39.71393966674805 23.634275436401367 C 39.7998046875 25.31207847595215 39.87163543701172 26.519987106323242 39.92942810058594 27.257997512817383 C 41.13606643676758 27.096115112304688 42.57676696777344 26.812110900878906 44.251529693603516 26.405982971191406 L 44.729122161865234 28.694564819335938 C 43.57194900512695 29.301166534423828 42.18109130859375 29.64603614807129 40.556549072265625 29.729175567626953 L 37.31543731689453 29.594650268554688 ZM 50.950748443603516 19.808900833129883 C 51.122623443603516 19.118383407592773 51.20362091064453 18.54317855834961 51.19374084472656 18.083284378051758 C 51.18386459350586 17.623390197753906 51.04906463623047 17.246198654174805 50.789344787597656 16.95170783996582 C 50.529483795166016 16.650554656982422 50.19960021972656 16.5042724609375 49.7996940612793 16.512863159179688 C 49.399784088134766 16.521453857421875 49.07075119018555 16.72523307800293 48.81259536743164 17.124204635620117 C 48.554439544677734 17.523174285888672 48.43080139160156 17.975933074951172 48.441680908203125 18.48248291015625 C 48.462730407714844 19.462257385253906 49.04064178466797 20.290037155151367 50.1754150390625 20.9658203125 C 51.31076431274414 21.668264389038086 52.08516311645508 22.17508316040039 52.49860763549805 22.48627471923828 C 52.912052154541016 22.797466278076172 53.2049560546875 23.084575653076172 53.3773078918457 23.34760093688965 C 53.81195831298828 24.025089263916016 54.03709030151367 24.727083206176758 54.052696228027344 25.453582763671875 C 54.07975769042969 26.71329116821289 53.67814254760742 27.728816986083984 52.84785079956055 28.50016212463379 C 52.01741409301758 29.26483917236328 51.07231903076172 29.65856170654297 50.01256561279297 29.68132781982422 C 48.75285339355469 29.708389282226562 47.68505096435547 29.20120620727539 46.809146881103516 28.159778594970703 C 46.17267990112305 27.399938583374023 45.58552551269531 26.452329635620117 45.04768371582031 25.316953659057617 L 47.05595397949219 24.28358268737793 C 47.3939208984375 25.11651611328125 47.812408447265625 25.817689895629883 48.31142044067383 26.387104034423828 C 48.803768157958984 26.956661224365234 49.323211669921875 27.23556900024414 49.8697509765625 27.22382926940918 C 50.22300338745117 27.21623992919922 50.537235260009766 27.099464416503906 50.81244659423828 26.87350082397461 C 51.0875129699707 26.640872955322266 51.220176696777344 26.297945022583008 51.21044158935547 25.844715118408203 C 51.20070266723633 25.39148712158203 51.01498794555664 24.9720458984375 50.65328598022461 24.58639144897461 C 50.29825210571289 24.200593948364258 49.82310104370117 23.81070899963379 49.22783660888672 23.416736602783203 C 48.62590789794922 23.022907257080078 48.16225814819336 22.702791213989258 47.836891174316406 22.456388473510742 C 47.51137924194336 22.20332145690918 47.14763641357422 21.87772560119629 46.74565887451172 21.47960090637207 C 45.98893737792969 20.709009170532227 45.5974006652832 19.710519790649414 45.5710563659668 18.4841365814209 C 45.54485321044922 17.26441764831543 45.949371337890625 16.228824615478516 46.784610748291016 15.37735652923584 C 47.619850158691406 14.525887489318848 48.624000549316406 14.087553977966309 49.797061920166016 14.06235408782959 C 50.97679138183594 14.03701114654541 51.97629928588867 14.468976974487305 52.79558563232422 15.35825252532959 C 53.621681213378906 16.254051208496094 54.045040130615234 17.181838989257812 54.06565856933594 18.141616821289062 C 54.08613204956055 19.094730377197266 53.92378616333008 19.918407440185547 53.578617095947266 20.612648010253906 L 50.950748443603516 19.808900833129883 ZM 58.65693664550781 24.00332260131836 C 58.64887619018555 24.73661231994629 58.80168533325195 25.391664505004883 59.11536407470703 25.968481063842773 C 59.43571090698242 26.545368194580078 59.81587219238281 26.836231231689453 60.25584411621094 26.841066360473633 C 60.69581985473633 26.845901489257812 61.051292419433594 26.65312957763672 61.322265625 26.26275062561035 C 61.593238830566406 25.872371673583984 61.78890609741211 25.357824325561523 61.909263610839844 24.71910858154297 C 62.11503982543945 23.587968826293945 62.22613525390625 22.27577781677246 62.24254608154297 20.782533645629883 C 62.25895690917969 19.289291381835938 62.1929931640625 17.10176658630371 62.044654846191406 14.219962120056152 L 64.89129638671875 14.541265487670898 C 65.05956268310547 17.429956436157227 65.13801574707031 19.39093780517578 65.12665557861328 20.42420768737793 C 65.11530303955078 21.45747947692871 65.09402465820312 22.180622100830078 65.06281280517578 22.593637466430664 C 65.02494049072266 23.00657844543457 64.96300506591797 23.48592758178711 64.87699890136719 24.031681060791016 C 64.78433227539062 24.577363967895508 64.66535949707031 25.089420318603516 64.52009582519531 25.567852020263672 C 64.3749008178711 26.03961944580078 64.1797103881836 26.510835647583008 63.93452453613281 26.981502532958984 C 63.69593048095703 27.45890998840332 63.411476135253906 27.86247444152832 63.0811653137207 28.192197799682617 C 62.359378814697266 28.957645416259766 61.388519287109375 29.333663940429688 60.16859436035156 29.32025718688965 C 58.94200134277344 29.30677604675293 57.901405334472656 28.748640060424805 57.04680633544922 27.645849227905273 C 56.185543060302734 26.542984008789062 55.76231002807617 25.31825828552246 55.77710723876953 23.97167205810547 C 55.809566497802734 21.018518447875977 56.00750732421875 17.87050437927246 56.370933532714844 14.527627944946289 L 59.217681884765625 14.838932991027832 C 58.87733459472656 17.90204429626465 58.6904182434082 20.95684051513672 58.65693664550781 24.00332260131836 ZM 66.85693359375 29.181045532226562 C 66.92398834228516 25.539899826049805 67.0033950805664 22.79379653930664 67.09516906738281 20.942737579345703 C 67.18661499023438 19.09833526611328 67.40084838867188 17.13319969177246 67.73788452148438 15.047329902648926 L 71.66719055175781 15.562531471252441 C 72.07276916503906 17.34480094909668 72.4698257446289 19.837520599365234 72.85835266113281 23.040687561035156 C 73.76416015625 20.52245330810547 74.5939712524414 17.786853790283203 75.34778594970703 14.833891868591309 L 79.29508972167969 15.390034675598145 C 79.18738555908203 19.7166748046875 79.08417510986328 22.875438690185547 78.9854736328125 24.8663272857666 C 78.88676452636719 26.857215881347656 78.73553466796875 28.62856674194336 78.53177642822266 30.180381774902344 L 75.67916107177734 29.758609771728516 C 75.94609069824219 28.009681701660156 76.28426361083984 24.28519058227539 76.69368743896484 18.585140228271484 L 76.52488708496094 18.556745529174805 C 76.35798645019531 19.095809936523438 76.08854675292969 20.020267486572266 75.71656799316406 21.330121994018555 C 74.93402099609375 24.05471420288086 74.1949234008789 26.37429428100586 73.499267578125 28.288862228393555 L 71.60002899169922 28.024494171142578 C 71.33378601074219 26.662973403930664 71.03042602539062 24.90579605102539 70.68994140625 22.752962112426758 C 70.35611724853516 20.60045623779297 70.09761047363281 19.01571273803711 69.9144058227539 17.998727798461914 L 69.74560546875 17.970333099365234 C 69.64070892333984 22.64420509338379 69.59589385986328 26.51006317138672 69.61116027832031 29.567903518676758 L 66.85693359375 29.181045532226562 ZM 80.35364532470703 29.88446044921875 C 80.48310089111328 27.68077850341797 80.63272857666016 25.59258460998535 80.80252838134766 23.6198787689209 C 80.97175598144531 21.6538143157959 81.30477905273438 19.1063232421875 81.80160522460938 15.977401733398438 C 84.21756744384766 15.817331314086914 86.56134796142578 15.835058212280273 88.83294677734375 16.03058433532715 L 88.6116943359375 18.6010799407959 C 87.03751373291016 18.46558380126953 85.56864166259766 18.38933753967285 84.205078125 18.372339248657227 C 84.01758575439453 19.928659439086914 83.88117980957031 21.12470245361328 83.79586029052734 21.960464477539062 C 84.86510467529297 21.898597717285156 86.12818145751953 21.916982650756836 87.58509063720703 22.0156192779541 L 87.78551483154297 24.35141372680664 C 86.84783935546875 24.284086227416992 85.43388366699219 24.269441604614258 83.54365539550781 24.30748176574707 C 83.39958953857422 25.981292724609375 83.3057861328125 27.187692642211914 83.26225280761719 27.92668342590332 C 84.47969055175781 27.931102752685547 85.9456787109375 27.84650993347168 87.66021728515625 27.672903060913086 L 87.82079315185547 30.005266189575195 C 86.59161376953125 30.44815444946289 85.16668701171875 30.599849700927734 83.54601287841797 30.460351943969727 L 80.35364532470703 29.88446044921875 Z" transform="matrix(1, 0, 0, 1, 0, 0)" style="fill: rgb(181, 182, 208); white-space: pre; color: rgb(51, 51, 51); fill-opacity: 1;"/></svg>